<?xml version="1.0" standalone="no"?>
<!DOCTYPE svg PUBLIC "-//W3C//DTD SVG 20010904//EN"
 "http://www.w3.org/TR/2001/REC-SVG-20010904/DTD/svg10.dtd">
<svg version="1.0" xmlns="http://www.w3.org/2000/svg"
 width="500.000000pt" height="500.000000pt" viewBox="0 0 500.000000 500.000000"
 preserveAspectRatio="xMidYMid meet">

<g transform="translate(0.000000,500.000000) scale(0.100000,-0.100000)"
fill="#000000" stroke="none">
<path d="M2360 3783 c-190 -19 -406 -94 -562 -196 -45 -30 -47 -33 -46 -79 l0
-48 36 28 c101 78 254 150 402 189 142 37 366 43 510 13 191 -39 340 -107 497
-227 l84 -64 42 12 42 11 -55 49 c-130 116 -326 226 -480 269 -139 39 -335 57
-470 43z"/>
<path d="M2561 3534 c-50 -42 -107 -133 -186 -298 -75 -154 -100 -219 -225
-571 -119 -334 -125 -332 -115 39 7 279 7 284 -14 305 -42 42 -91 -10 -164
-175 -47 -108 -95 -259 -162 -514 -79 -305 -102 -370 -125 -370 -37 0 -48 547
-17 828 24 208 60 419 103 590 20 79 33 146 30 149 -13 13 -38 -10 -55 -49
-21 -50 -62 -215 -85 -338 -57 -311 -86 -709 -67 -929 18 -218 45 -301 97
-301 21 0 29 9 49 54 29 65 70 204 125 426 23 91 57 214 77 275 58 180 145
346 170 322 3 -4 0 -98 -7 -210 -14 -214 -11 -324 10 -369 42 -89 108 2 195
265 104 312 195 534 287 694 54 96 109 159 128 148 22 -13 5 -223 -39 -490
-58 -356 -88 -614 -111 -965 -24 -352 -24 -455 0 -455 12 0 16 25 22 140 13
300 51 620 135 1170 65 429 74 572 37 622 -28 37 -55 40 -93 7z"/>
<path d="M3484 3506 c-8 -14 -22 -48 -29 -76 -8 -29 -15 -53 -17 -55 -2 -1
-76 -23 -165 -48 -239 -68 -362 -124 -350 -160 6 -20 40 -20 56 0 9 11 44 32
77 46 104 45 357 118 369 106 2 -3 -2 -77 -10 -165 -8 -87 -15 -216 -15 -286
l0 -126 -52 -47 c-59 -51 -159 -105 -195 -105 -34 0 -83 51 -83 87 0 24 7 31
45 46 78 32 145 126 115 162 -48 57 -175 -40 -203 -155 -8 -30 -97 -98 -164
-123 -54 -21 -96 -15 -118 16 -19 27 -20 87 -2 87 25 0 107 60 127 92 12 19
19 46 18 63 -3 26 -7 30 -38 33 -49 4 -97 -30 -137 -98 -42 -69 -45 -139 -10
-191 49 -72 141 -69 257 10 34 23 63 41 63 39 38 -77 69 -101 130 -101 51 1
111 29 181 84 27 22 51 39 55 39 3 0 7 -101 8 -225 2 -227 8 -270 39 -263 13
3 16 59 18 413 3 300 8 453 21 570 9 88 19 162 21 164 6 6 198 39 289 49 56 6
98 7 113 1 32 -12 51 3 32 26 -18 22 -136 20 -283 -5 -145 -25 -156 -24 -129
10 13 17 19 36 16 59 -7 58 -23 67 -50 27z m-631 -666 c-6 -24 -80 -90 -100
-90 -11 0 -10 7 4 31 35 60 108 105 96 59z m347 10 c0 -21 -33 -60 -67 -81
-41 -26 -52 -19 -28 17 36 55 95 95 95 64z"/>
<path d="M1505 3326 c-185 -244 -275 -500 -275 -781 0 -585 402 -1092 969
-1221 338 -77 681 -13 971 180 375 251 586 683 550 1128 -15 182 -49 305 -129
468 l-46 94 -8 -66 c-7 -59 -5 -73 17 -126 152 -360 120 -757 -86 -1089 -67
-108 -226 -272 -332 -343 -145 -96 -320 -165 -490 -191 -118 -19 -353 -6 -466
26 -200 55 -373 153 -510 287 -163 160 -189 193 -227 279 -93 218 -120 315
-133 483 -18 218 20 410 120 611 38 76 65 147 75 194 16 77 16 89 0 67z"/>
</g>
</svg>
