<svg version="1.1" id="Layer_1" xmlns="http://www.w3.org/2000/svg" xmlns:xlink="http://www.w3.org/1999/xlink" x="0px" y="0px"
	 width="100%" viewBox="0 0 263 261" enable-background="new 0 0 263 261" xml:space="preserve">
<path fill="#FEFEFE" opacity="1.000000" stroke="none" 
	d="
M264.000000,51.000000 
	C264.000000,121.303825 264.000000,191.607651 264.000000,261.955750 
	C176.399643,261.955750 88.799255,261.955750 1.099435,261.955750 
	C1.099435,175.102890 1.099435,88.205635 1.099435,1.154187 
	C88.666466,1.154187 176.333191,1.154187 264.000000,1.154187 
	C264.000000,15.741609 264.000000,30.402145 263.612762,45.660835 
	C255.782547,47.764591 248.357498,49.373375 240.878616,50.672203 
	C239.660309,50.883789 238.204025,49.724979 238.148697,49.703384 
	C238.901917,45.799179 239.659256,42.974495 239.882019,40.108269 
	C239.957642,39.135212 238.884064,37.704071 237.945099,37.173775 
	C237.462860,36.901417 235.616592,37.930935 235.257858,38.752502 
	C233.945084,41.758984 233.285385,45.070602 231.812531,47.980171 
	C230.833817,49.913570 229.190826,52.250343 227.329605,52.878220 
	C214.517731,57.200279 201.531662,61.003887 188.694885,65.255806 
	C185.762741,66.227013 183.058090,68.111824 180.534332,69.965096 
	C179.660614,70.606689 179.652512,72.427055 179.249039,73.709000 
	C180.774750,73.658920 182.429565,73.954826 183.785248,73.449013 
	C184.865219,73.046059 185.408417,71.160835 186.483322,70.794449 
	C199.502808,66.356621 212.557495,62.018833 225.649887,57.800438 
	C229.008621,56.718250 229.642258,59.150166 229.614548,61.731335 
	C229.602432,62.861362 229.012665,63.978600 228.952957,65.115707 
	C228.152557,80.360687 227.523346,95.616356 226.514572,110.847038 
	C226.343658,113.427475 225.238785,116.596680 223.433960,118.282570 
	C219.699844,121.770561 215.458755,124.932175 210.936020,127.286400 
	C207.713470,128.963837 203.670181,129.829483 200.031174,129.725616 
	C196.430405,129.622864 194.684036,126.459343 193.886658,122.846092 
	C192.992081,118.792343 196.170227,118.674324 198.325119,117.028847 
	C202.323593,113.975609 206.069412,110.441437 209.260025,106.564072 
	C210.335342,105.257332 210.255966,101.527641 209.154282,100.323639 
	C208.089157,99.159615 204.812302,99.167000 202.884705,99.803635 
	C196.994003,101.749207 192.705261,106.298035 191.120209,111.893326 
	C188.683365,120.495583 182.143692,124.487625 175.267563,127.959084 
	C172.062057,129.577393 167.372498,130.000977 164.002304,128.930359 
	C161.782745,128.225250 160.379929,124.003990 159.383072,121.092941 
	C159.148544,120.408073 162.056793,118.689972 163.467072,117.390594 
	C167.306732,113.852859 171.412201,110.534492 174.770447,106.583588 
	C175.841080,105.324020 175.736267,101.593613 174.637909,100.381706 
	C173.568939,99.202240 170.255234,99.052422 168.420242,99.749146 
	C161.193481,102.493050 157.123215,108.463173 155.068771,115.523239 
	C153.447876,121.093391 153.742081,126.866081 158.590637,131.153320 
	C163.562485,135.549561 169.186691,134.642639 174.485840,132.047607 
	C179.064713,129.805283 183.296082,126.853287 187.818909,124.132072 
	C188.294754,124.564064 189.020554,125.034958 189.500412,125.686882 
	C196.435013,135.108170 201.587479,136.465652 211.632584,130.834961 
	C216.078171,128.343033 220.095474,125.087051 224.991028,121.705589 
	C225.358917,123.985992 225.934723,125.972565 225.956711,127.965256 
	C226.052322,136.625443 225.873993,145.289352 226.025848,153.947891 
	C226.104401,158.427994 226.471848,162.928284 227.129578,167.356964 
	C227.316330,168.614410 228.982712,169.652115 229.970520,170.790588 
	C230.676559,169.618484 231.826447,168.505539 231.992279,167.261444 
	C232.296982,164.975494 232.055435,162.611267 231.983917,160.281448 
	C230.950943,126.634674 231.573395,93.036720 235.174438,59.542435 
	C235.346664,57.940430 236.747055,55.380539 237.937119,55.152298 
	C246.572556,53.496120 255.300995,52.324741 264.000000,51.000000 
M28.940994,201.610687 
	C53.457043,243.378296 104.274139,266.390839 153.854294,258.177704 
	C238.791138,244.107620 284.370392,151.463455 243.620895,75.686913 
	C243.070129,74.662720 242.250565,73.783081 241.556488,72.835968 
	C241.035706,72.985390 240.514923,73.134819 239.994141,73.284241 
	C240.572296,78.233208 240.096329,83.611465 241.907333,88.058342 
	C250.698135,109.643684 254.190338,131.772507 250.343872,154.849396 
	C243.920853,193.384399 222.634613,221.520569 188.819077,240.049637 
	C168.247757,251.321579 145.875793,255.027817 122.359604,252.517471 
	C98.170082,249.935226 76.639359,241.548279 58.528816,225.195389 
	C52.374760,219.638596 47.388428,212.724106 40.969254,207.544449 
	C35.149307,202.848282 32.011398,197.116882 29.952204,190.347015 
	C29.617371,189.246201 29.099396,188.196426 28.615662,187.146286 
	C10.962729,148.822525 12.270012,111.326775 33.052082,74.437347 
	C35.533970,70.031853 36.102020,64.548172 37.557167,59.564247 
	C3.396385,100.165077 1.082507,158.167679 28.940994,201.610687 
M39.919254,83.114281 
	C35.126255,111.237755 32.813095,139.570953 34.022404,168.070999 
	C34.391998,176.781372 36.520798,185.470398 38.479866,194.023560 
	C38.986950,196.237473 41.896793,197.901047 43.702953,199.817413 
	C45.509163,197.842270 48.216129,196.160431 48.970772,193.842880 
	C52.930202,181.683151 56.698261,169.442444 59.962540,157.079300 
	C65.056831,137.785172 69.284935,118.229630 78.643799,100.361702 
	C80.216072,97.359909 82.238663,94.593979 84.053185,91.719063 
	C84.553047,91.786263 85.052902,91.853462 85.552765,91.920662 
	C86.078964,93.839249 87.151405,95.788918 87.044266,97.671455 
	C86.243683,111.737610 85.195541,125.789558 84.272499,139.849075 
	C84.186249,141.162842 84.064346,142.668243 84.588264,143.791046 
	C86.052734,146.929520 87.847565,149.913864 89.512009,152.959030 
	C92.033997,150.546539 95.621498,148.590393 96.885475,145.639114 
	C101.326546,135.269592 105.075134,124.596107 108.891899,113.968086 
	C116.992302,91.411919 124.894272,68.767868 137.826996,48.362564 
	C140.071899,44.820515 142.991669,41.706188 145.599731,38.394306 
	C146.220673,38.540112 146.841614,38.685921 147.462555,38.831726 
	C147.952499,41.059723 149.104584,43.372925 148.830551,45.502613 
	C145.899582,68.280640 142.544525,91.004936 139.708054,113.794037 
	C137.218964,133.792252 135.151199,153.844849 133.081909,173.892487 
	C132.214218,182.298920 131.722580,190.748779 131.241714,199.189255 
	C130.741104,207.976791 130.367416,216.774704 130.163269,225.573288 
	C130.124207,227.257202 131.130539,228.965363 131.654587,230.662354 
	C132.209717,230.626740 132.764847,230.591141 133.319977,230.555542 
	C133.767715,228.757004 134.495880,226.977249 134.617859,225.156891 
	C135.429825,213.039673 135.471237,200.834763 136.954056,188.805161 
	C141.856720,149.031174 147.390640,109.335266 152.382614,69.571770 
	C153.517563,60.531376 153.836929,51.333603 153.696213,42.221172 
	C153.653366,39.447224 151.457352,35.633896 149.097336,34.229923 
	C145.882843,32.317616 143.115875,35.350254 140.744125,37.903702 
	C130.904633,48.496990 125.199265,61.521458 119.938225,74.584114 
	C111.212509,96.249207 103.400658,118.281548 95.086731,140.114578 
	C94.248726,142.315247 92.606850,144.209808 91.338036,146.246414 
	C90.514198,146.002884 89.690361,145.759369 88.866531,145.515839 
	C89.384094,134.122314 90.026093,122.732567 90.371666,111.333832 
	C90.572739,104.701263 90.673096,98.022232 90.108658,91.424866 
	C89.722343,86.909370 86.244026,85.809464 82.656136,88.619598 
	C81.380219,89.618950 80.082672,90.930138 79.469704,92.383522 
	C73.880096,105.636757 67.619003,118.684357 63.158150,132.316910 
	C57.267757,150.318192 52.874352,168.807098 47.690510,187.044632 
	C47.053036,189.287369 45.512238,191.273346 44.390049,193.378311 
	C43.769081,193.192383 43.148113,193.006439 42.527149,192.820511 
	C37.672489,166.971832 39.329742,140.980194 41.613926,114.969040 
	C43.904617,88.883766 48.753006,63.232697 55.749538,37.941162 
	C54.688934,37.656273 53.628334,37.371384 52.567730,37.086491 
	C44.801014,50.969379 42.868122,66.747108 39.919254,83.114281 
M167.991486,15.547603 
	C152.685120,11.429627 137.261185,10.282012 121.388168,11.860988 
	C101.176941,13.871510 83.092934,20.893333 66.125099,31.693758 
	C61.983978,34.329678 61.140949,37.198704 62.577961,41.600739 
	C64.015350,40.626110 65.377930,39.720943 66.721550,38.788456 
	C110.464615,8.430145 169.228424,11.120322 209.663101,45.666145 
	C213.900131,49.286098 217.173691,49.240639 221.787659,46.537914 
	C206.096497,32.331158 189.142365,21.160341 167.991486,15.547603 
z"/>
<path fill="#FF605F" opacity="1.000000" stroke="none" 
	d="
M264.000000,50.583336 
	C255.300995,52.324741 246.572556,53.496120 237.937119,55.152298 
	C236.747055,55.380539 235.346664,57.940430 235.174438,59.542435 
	C231.573395,93.036720 230.950943,126.634674 231.983917,160.281448 
	C232.055435,162.611267 232.296982,164.975494 231.992279,167.261444 
	C231.826447,168.505539 230.676559,169.618484 229.970520,170.790588 
	C228.982712,169.652115 227.316330,168.614410 227.129578,167.356964 
	C226.471848,162.928284 226.104401,158.427994 226.025848,153.947891 
	C225.873993,145.289352 226.052322,136.625443 225.956711,127.965256 
	C225.934723,125.972565 225.358917,123.985992 224.991028,121.705589 
	C220.095474,125.087051 216.078171,128.343033 211.632584,130.834961 
	C201.587479,136.465652 196.435013,135.108170 189.500412,125.686882 
	C189.020554,125.034958 188.294754,124.564064 187.818909,124.132072 
	C183.296082,126.853287 179.064713,129.805283 174.485840,132.047607 
	C169.186691,134.642639 163.562485,135.549561 158.590637,131.153320 
	C153.742081,126.866081 153.447876,121.093391 155.068771,115.523239 
	C157.123215,108.463173 161.193481,102.493050 168.420242,99.749146 
	C170.255234,99.052422 173.568939,99.202240 174.637909,100.381706 
	C175.736267,101.593613 175.841080,105.324020 174.770447,106.583588 
	C171.412201,110.534492 167.306732,113.852859 163.467072,117.390594 
	C162.056793,118.689972 159.148544,120.408073 159.383072,121.092941 
	C160.379929,124.003990 161.782745,128.225250 164.002304,128.930359 
	C167.372498,130.000977 172.062057,129.577393 175.267563,127.959084 
	C182.143692,124.487625 188.683365,120.495583 191.120209,111.893326 
	C192.705261,106.298035 196.994003,101.749207 202.884705,99.803635 
	C204.812302,99.167000 208.089157,99.159615 209.154282,100.323639 
	C210.255966,101.527641 210.335342,105.257332 209.260025,106.564072 
	C206.069412,110.441437 202.323593,113.975609 198.325119,117.028847 
	C196.170227,118.674324 192.992081,118.792343 193.886658,122.846092 
	C194.684036,126.459343 196.430405,129.622864 200.031174,129.725616 
	C203.670181,129.829483 207.713470,128.963837 210.936020,127.286400 
	C215.458755,124.932175 219.699844,121.770561 223.433960,118.282570 
	C225.238785,116.596680 226.343658,113.427475 226.514572,110.847038 
	C227.523346,95.616356 228.152557,80.360687 228.952957,65.115707 
	C229.012665,63.978600 229.602432,62.861362 229.614548,61.731335 
	C229.642258,59.150166 229.008621,56.718250 225.649887,57.800438 
	C212.557495,62.018833 199.502808,66.356621 186.483322,70.794449 
	C185.408417,71.160835 184.865219,73.046059 183.785248,73.449013 
	C182.429565,73.954826 180.774750,73.658920 179.249039,73.709000 
	C179.652512,72.427055 179.660614,70.606689 180.534332,69.965096 
	C183.058090,68.111824 185.762741,66.227013 188.694885,65.255806 
	C201.531662,61.003887 214.517731,57.200279 227.329605,52.878220 
	C229.190826,52.250343 230.833817,49.913570 231.812531,47.980171 
	C233.285385,45.070602 233.945084,41.758984 235.257858,38.752502 
	C235.616592,37.930935 237.462860,36.901417 237.945099,37.173775 
	C238.884064,37.704071 239.957642,39.135212 239.882019,40.108269 
	C239.659256,42.974495 238.901917,45.799179 238.148697,49.703384 
	C238.204025,49.724979 239.660309,50.883789 240.878616,50.672203 
	C248.357498,49.373375 255.782547,47.764591 263.612762,46.129494 
	C264.000000,47.388889 264.000000,48.777779 264.000000,50.583336 
M204.553329,108.860031 
	C204.898087,107.150040 205.242828,105.440048 205.587585,103.730049 
	C205.177734,103.436234 204.767899,103.142418 204.358047,102.848602 
	C201.440323,105.861916 198.522614,108.875237 195.604889,111.888550 
	C196.116592,112.524086 196.628281,113.159615 197.139984,113.795151 
	C199.471619,112.357750 201.803268,110.920341 204.553329,108.860031 
M171.023468,107.065361 
	C170.880432,106.009117 170.737396,104.952873 170.369843,102.238586 
	C166.629288,106.128731 163.800186,109.070969 160.971085,112.013206 
	C161.441071,112.564514 161.911041,113.115822 162.381027,113.667130 
	C165.171463,111.712036 167.961914,109.756943 171.023468,107.065361 
z"/>
<path fill="#1B2F29" opacity="1.000000" stroke="none" 
	d="
M28.779316,201.283173 
	C1.082507,158.167679 3.396385,100.165077 37.557167,59.564247 
	C36.102020,64.548172 35.533970,70.031853 33.052082,74.437347 
	C12.270012,111.326775 10.962729,148.822525 28.615662,187.146286 
	C29.099396,188.196426 29.617371,189.246201 29.952204,190.347015 
	C32.011398,197.116882 35.149307,202.848282 40.969254,207.544449 
	C47.388428,212.724106 52.374760,219.638596 58.528816,225.195389 
	C76.639359,241.548279 98.170082,249.935226 122.359604,252.517471 
	C145.875793,255.027817 168.247757,251.321579 188.819077,240.049637 
	C222.634613,221.520569 243.920853,193.384399 250.343872,154.849396 
	C254.190338,131.772507 250.698135,109.643684 241.907333,88.058342 
	C240.096329,83.611465 240.572296,78.233208 239.994141,73.284241 
	C240.514923,73.134819 241.035706,72.985390 241.556488,72.835968 
	C242.250565,73.783081 243.070129,74.662720 243.620895,75.686913 
	C284.370392,151.463455 238.791138,244.107620 153.854294,258.177704 
	C104.274139,266.390839 53.457043,243.378296 28.779316,201.283173 
z"/>
<path fill="#FF6160" opacity="1.000000" stroke="none" 
	d="
M40.033512,82.691673 
	C42.868122,66.747108 44.801014,50.969379 52.567730,37.086491 
	C53.628334,37.371384 54.688934,37.656273 55.749538,37.941162 
	C48.753006,63.232697 43.904617,88.883766 41.613926,114.969040 
	C39.329742,140.980194 37.672489,166.971832 42.527149,192.820511 
	C43.148113,193.006439 43.769081,193.192383 44.390049,193.378311 
	C45.512238,191.273346 47.053036,189.287369 47.690510,187.044632 
	C52.874352,168.807098 57.267757,150.318192 63.158150,132.316910 
	C67.619003,118.684357 73.880096,105.636757 79.469704,92.383522 
	C80.082672,90.930138 81.380219,89.618950 82.656136,88.619598 
	C86.244026,85.809464 89.722343,86.909370 90.108658,91.424866 
	C90.673096,98.022232 90.572739,104.701263 90.371666,111.333832 
	C90.026093,122.732567 89.384094,134.122314 88.866531,145.515839 
	C89.690361,145.759369 90.514198,146.002884 91.338036,146.246414 
	C92.606850,144.209808 94.248726,142.315247 95.086731,140.114578 
	C103.400658,118.281548 111.212509,96.249207 119.938225,74.584114 
	C125.199265,61.521458 130.904633,48.496990 140.744125,37.903702 
	C143.115875,35.350254 145.882843,32.317616 149.097336,34.229923 
	C151.457352,35.633896 153.653366,39.447224 153.696213,42.221172 
	C153.836929,51.333603 153.517563,60.531376 152.382614,69.571770 
	C147.390640,109.335266 141.856720,149.031174 136.954056,188.805161 
	C135.471237,200.834763 135.429825,213.039673 134.617859,225.156891 
	C134.495880,226.977249 133.767715,228.757004 133.319977,230.555542 
	C132.764847,230.591141 132.209717,230.626740 131.654587,230.662354 
	C131.130539,228.965363 130.124207,227.257202 130.163269,225.573288 
	C130.367416,216.774704 130.741104,207.976791 131.241714,199.189255 
	C131.722580,190.748779 132.214218,182.298920 133.081909,173.892487 
	C135.151199,153.844849 137.218964,133.792252 139.708054,113.794037 
	C142.544525,91.004936 145.899582,68.280640 148.830551,45.502613 
	C149.104584,43.372925 147.952499,41.059723 147.462555,38.831726 
	C146.841614,38.685921 146.220673,38.540112 145.599731,38.394306 
	C142.991669,41.706188 140.071899,44.820515 137.826996,48.362564 
	C124.894272,68.767868 116.992302,91.411919 108.891899,113.968086 
	C105.075134,124.596107 101.326546,135.269592 96.885475,145.639114 
	C95.621498,148.590393 92.033997,150.546539 89.512009,152.959030 
	C87.847565,149.913864 86.052734,146.929520 84.588264,143.791046 
	C84.064346,142.668243 84.186249,141.162842 84.272499,139.849075 
	C85.195541,125.789558 86.243683,111.737610 87.044266,97.671455 
	C87.151405,95.788918 86.078964,93.839249 85.552765,91.920662 
	C85.052902,91.853462 84.553047,91.786263 84.053185,91.719063 
	C82.238663,94.593979 80.216072,97.359909 78.643799,100.361702 
	C69.284935,118.229630 65.056831,137.785172 59.962540,157.079300 
	C56.698261,169.442444 52.930202,181.683151 48.970772,193.842880 
	C48.216129,196.160431 45.509163,197.842270 43.702950,199.817413 
	C41.896793,197.901047 38.986950,196.237473 38.479866,194.023560 
	C36.520798,185.470398 34.391998,176.781372 34.022404,168.070999 
	C32.813095,139.570953 35.126255,111.237755 40.033512,82.691673 
z"/>
<path fill="#192C27" opacity="1.000000" stroke="none" 
	d="
M168.364197,15.727231 
	C189.142365,21.160341 206.096497,32.331158 221.787659,46.537914 
	C217.173691,49.240639 213.900131,49.286098 209.663101,45.666145 
	C169.228424,11.120322 110.464615,8.430145 66.721550,38.788456 
	C65.377930,39.720943 64.015350,40.626110 62.577961,41.600739 
	C61.140949,37.198704 61.983978,34.329678 66.125099,31.693758 
	C83.092934,20.893333 101.176941,13.871510 121.388168,11.860988 
	C137.261185,10.282012 152.685120,11.429627 168.364197,15.727231 
z"/>
<path fill="#FFEDEB" opacity="1.000000" stroke="none" 
	d="
M204.344116,109.171486 
	C201.803268,110.920341 199.471619,112.357750 197.139984,113.795151 
	C196.628281,113.159615 196.116592,112.524086 195.604889,111.888550 
	C198.522614,108.875237 201.440323,105.861916 204.358047,102.848602 
	C204.767899,103.142418 205.177734,103.436234 205.587585,103.730049 
	C205.242828,105.440048 204.898087,107.150040 204.344116,109.171486 
z"/>
<path fill="#FFF5F3" opacity="1.000000" stroke="none" 
	d="
M170.887909,107.433609 
	C167.961914,109.756943 165.171463,111.712036 162.381027,113.667130 
	C161.911041,113.115822 161.441071,112.564514 160.971085,112.013206 
	C163.800186,109.070969 166.629288,106.128731 170.369843,102.238586 
	C170.737396,104.952873 170.880432,106.009117 170.887909,107.433609 
z"/>
</svg>